# xmcd
#
# Track frame offsets:
#	150
#	15232
#	30780
#	44182
#	57567
#	71557
#	84240
#	100662
#	113630
#	127960
#	141245
#	154150
#	169795
#	186325
#	201112
#	217440
#	232232
#	244357
#	257552
#	269640
#	282632
#	301610
#
# Disc length: 4237 seconds
# Revision: 1
# Processed by: cddbd v1.5.2PL0 Copyright (c) Steve Scherf et al.
# Submitted via: dBpowerAMP V12.0
#
DISCID=47108b16
DTITLE=Various Artist - CBS Records: Tree International 1958-1988 (3 Of 4)
DYEAR=1989
DGENRE=Country
TTITLE0=Mickey Gilley - Fool For Your Love
TTITLE1=Ronnie McDowell - Personally
TTITLE2=B. J. Thomas - New Looks From An Old Lover
TTITLE3=Charly McClain - With You
TTITLE4=Ronnie McDowell - You're Gonna' Ruin My Bad Reputation
TTITLE5=Exile - Give Me One More Chance
TTITLE6=Exile - I Don't Wanna Be A Memory
TTITLE7=Ronnie McDowell - I Got A Million Of 'Em
TTITLE8=Mark Gray - Left Side Of The Bed
TTITLE9=Ronnie McDowell - You Made A Wanted Man Out Of Me
TTITLE10=Janie Frickie - Your Hearts Not In It
TTITLE11=Exile - Crazy For Your Love
TTITLE12=Exile - Hang On To Your Heart
TTITLE13=Ronnie McDowell - Love Talks
TTITLE14=Exile - She's A Miracle
TTITLE15=George Jones - Who's Gonna' Fill Their Shoes
TTITLE16=Exile - I Could Get Used To You
TTITLE17=Exile - It'll Be Me
TTITLE18=Gene Watson - Memories To Burn
TTITLE19=The O'Kanes - Oh Darlin'
TTITLE20=Exile - I Can't Get Close Enough
TTITLE21=Exile - She's To Good To Be True
EXTD=
EXTT0=
EXTT1=
EXTT2=
EXTT3=
EXTT4=
EXTT5=
EXTT6=
EXTT7=
EXTT8=
EXTT9=
EXTT10=
EXTT11=
EXTT12=
EXTT13=
EXTT14=
EXTT15=
EXTT16=
EXTT17=
EXTT18=
EXTT19=
EXTT20=
EXTT21=
PLAYORDER=
